<?xml version="1.0"?>
<svg xmlns="http://www.w3.org/2000/svg" width="512" height="512" viewBox="0 0 512 512"><g><path d="M370.73,297.05A135.492,135.492,0,0,0,392,224c0-74.99-61.01-136-136-136S120,149.01,120,224a136.025,136.025,0,0,0,72,120.03V376h-8a8,8,0,0,0-8,8v16h-8a8,8,0,0,0-8,8v24a8,8,0,0,0,8,8h8v16a8,8,0,0,0,8,8h8a40.04,40.04,0,0,0,40,40h48a40.04,40.04,0,0,0,40-40h8a8,8,0,0,0,8-8V440h8a8,8,0,0,0,8-8V408a8,8,0,0,0-8-8h-8V384a8,8,0,0,0-8-8h-8V344.03A136.39,136.39,0,0,0,370.73,297.05ZM192,392H320v8H192Zm80-168V376H240V224Zm-32-16v-5.33l16-21.34,16,21.34V208Zm40,280H232a24.032,24.032,0,0,1-24-24h96A24.032,24.032,0,0,1,280,488Zm40-40H192v-8H320Zm16-32v8H176v-8Zm-27.51-84.06a8.01,8.01,0,0,0-4.49,7.19V376H288V200a7.982,7.982,0,0,0-1.6-4.8l-24-32a8,8,0,0,0-12.8,0l-24,32A7.982,7.982,0,0,0,224,200V376H208V339.13a8.01,8.01,0,0,0-4.49-7.19,120,120,0,1,1,104.98,0Z"/><path d="M256,232a8,8,0,0,0-8,8v88a8,8,0,0,0,16,0V240A8,8,0,0,0,256,232Z"/><path d="M256,344a8,8,0,0,0-8,8v8a8,8,0,0,0,16,0v-8A8,8,0,0,0,256,344Z"/><path d="M256,64a8,8,0,0,0,8-8V16a8,8,0,0,0-16,0V56A8,8,0,0,0,256,64Z"/><path d="M88,216H48a8,8,0,0,0,0,16H88a8,8,0,0,0,0-16Z"/><path d="M464,216H424a8,8,0,0,0,0,16h40a8,8,0,0,0,0-16Z"/><path d="M131.549,337.137l-28.284,28.284a8,8,0,0,0,11.314,11.314l28.284-28.284a8,8,0,1,0-11.314-11.314Z"/><path d="M397.421,71.265,369.137,99.549a8,8,0,0,0,11.314,11.314l28.284-28.284a8,8,0,0,0-11.314-11.314Z"/><path d="M131.549,110.863a8,8,0,1,0,11.314-11.314L114.579,71.265a8,8,0,0,0-11.314,11.314Z"/><path d="M380.451,337.137a8,8,0,1,0-11.314,11.314l28.284,28.284a8,8,0,0,0,11.314-11.314Z"/></g></svg>
